<?xml version="1.0" encoding="utf-8"?>
<!-- Generator: Adobe Illustrator 23.1.0, SVG Export Plug-In . SVG Version: 6.00 Build 0)  -->
<svg version="1.1" id="Layer_1" xmlns="http://www.w3.org/2000/svg" xmlns:xlink="http://www.w3.org/1999/xlink" x="0px" y="0px"
	 viewBox="0 0 413 128.7" style="enable-background:new 0 0 413 128.7;" xml:space="preserve">
<style type="text/css">
	.st0{fill:#4CBD94;}
	.st1{opacity:0.98;fill:#FFFFFF;stroke:#4CBD94;stroke-width:14;stroke-miterlimit:10.0001;enable-background:new    ;}
	.st2{opacity:0.98;fill:#4CBD94;enable-background:new    ;}
</style>
<g>
	<g>
		<path class="st0" d="M155.8,101.2l32.8-42.7c3.1-3.9,6.1-7.4,9.4-11.3v-0.3h-39.3V36.2H214l-0.2,8.2l-32.4,42.1
			c-3,4-6,7.6-9.3,11.4v0.3h42.4v10.6h-58.9v-7.6H155.8z"/>
		<path class="st0" d="M300.3,89c0,7.5,0.2,14.1,0.6,19.8h-11.7L288.4,97h-0.3c-3.5,5.8-11.1,13.5-24,13.5c-11.4,0-25-6.3-25-31.8
			V36.2h13.2v40.2c0,13.8,4.2,23.1,16.2,23.1c8.8,0,15-6.1,17.4-12c0.8-2,1.2-4.4,1.2-6.8V36.2h13.2V89z"/>
		<path class="st0" d="M333.4,58.9c0-8.5-0.1-15.9-0.6-22.6h11.5l0.5,14.2h0.6c3.3-9.8,11.2-15.9,20.1-15.9c1.5,0,2.5,0.2,3.8,0.5
			v12.4c-1.3-0.3-2.7-0.5-4.5-0.5c-9.3,0-15.9,7-17.7,16.9c-0.3,1.8-0.6,3.9-0.6,6.2v38.7h-13L333.4,58.9L333.4,58.9z"/>
		<path class="st0" d="M394.3,108.8V36.2h13.2v72.6H394.3z"/>
	</g>
	
		<rect x="21.2" y="32.9" transform="matrix(0.6504 -0.7596 0.7596 0.6504 -26.2545 71.6594)" class="st1" width="87.1" height="62.9"/>
	
		<rect x="393" y="12.8" transform="matrix(0.6504 -0.7596 0.7596 0.6504 126.1332 310.9627)" class="st2" width="15.7" height="11.4"/>
</g>
<g id="Layer_3">
</g>
</svg>
